HIERARCHY
ROOT Root
{
  OFFSET 0.0 0.0 0.0
  CHANNELS 6 Xposition Yposition Zposition Zrotation Yrotation Xrotation
  JOINT Hips
  {
    OFFSET 0.0 100.0 0.0
    CHANNELS 6 Xposition Yposition Zposition Zrotation Yrotation Xrotation
    JOINT Spine1
    {
      OFFSET -0.013727 5.003763 -0.053727
      CHANNELS 3 Zrotation Yrotation Xrotation
      JOINT Spine2
      {
        OFFSET -0.0 7.125301 -0.029825
        CHANNELS 3 Zrotation Yrotation Xrotation
        JOINT Chest
        {
          OFFSET -1e-06 7.550063 -0.815971
          CHANNELS 3 Zrotation Yrotation Xrotation
          JOINT Neck1
          {
            OFFSET -0.181677 26.311295 -0.553348
            CHANNELS 3 Zrotation Yrotation Xrotation
            JOINT Neck2
            {
              OFFSET -3e-06 7.709397 2.302585
              CHANNELS 3 Zrotation Yrotation Xrotation
              JOINT Head
              {
                OFFSET -5e-06 6.128916 1.953709
                CHANNELS 3 Zrotation Yrotation Xrotation
                JOINT HeadEnd
                {
                  OFFSET 0.003598 16.065403 -1.835379
                  CHANNELS 3 Zrotation Yrotation Xrotation
                }
                JOINT Jaw
                {
                  OFFSET 0.002637 0.475592 3.094941
                  CHANNELS 3 Zrotation Yrotation Xrotation
                }
                JOINT LeftEye
                {
                  OFFSET 3.206381 5.380205 7.586883
                  CHANNELS 3 Zrotation Yrotation Xrotation
                }
                JOINT RightEye
                {
                  OFFSET -3.22244 5.361869 7.558234
                  CHANNELS 3 Zrotation Yrotation Xrotation
                }
              }
            }
          }
          JOINT LeftShoulder
          {
            OFFSET 1.621652 23.237164 5.113413
            CHANNELS 3 Zrotation Yrotation Xrotation
            JOINT LeftArm
            {
              OFFSET 14.919846 2e-06 -5.502326
              CHANNELS 3 Zrotation Yrotation Xrotation
              JOINT LeftForeArm
              {
                OFFSET 28.739307 0.0 -0.002588
                CHANNELS 3 Zrotation Yrotation Xrotation
                JOINT LeftHand
                {
                  OFFSET 27.093981 -1e-06 0.002609
                  CHANNELS 3 Zrotation Yrotation Xrotation
                  JOINT LeftHandThumb1
                  {
                    OFFSET 2.276482 -1.392045 3.191413
                    CHANNELS 3 Zrotation Yrotation Xrotation
                    JOINT LeftHandThumb2
                    {
                      OFFSET 4.012836 -1.828127 1.641654
                      CHANNELS 3 Zrotation Yrotation Xrotation
                      JOINT LeftHandThumb3
                      {
                        OFFSET 2.798515 0.0 -3e-06
                        CHANNELS 3 Zrotation Yrotation Xrotation
                        JOINT LeftHandThumbEnd
                        {
                          OFFSET 3.180793 -4e-06 4e-06
                          CHANNELS 3 Zrotation Yrotation Xrotation
                        }
                      }
                    }
                  }
                  JOINT LeftHandIndex1
                  {
                    OFFSET 3.247555 -0.531998 2.296169
                    CHANNELS 3 Zrotation Yrotation Xrotation
                    JOINT LeftHandIndex2
                    {
                      OFFSET 6.364578 0.01206 0.1786
                      CHANNELS 3 Zrotation Yrotation Xrotation
                      JOINT LeftHandIndex3
                      {
                        OFFSET 3.662364 0.0 0.0
                        CHANNELS 3 Zrotation Yrotation Xrotation
                        JOINT LeftHandIndex4
                        {
                          OFFSET 2.329242 4e-06 4e-06
                          CHANNELS 3 Zrotation Yrotation Xrotation
                          JOINT LeftHandIndexEnd
                          {
                            OFFSET 2.759615 -0.180537 -0.113024
                            CHANNELS 3 Zrotation Yrotation Xrotation
                          }
                        }
                      }
                    }
                  }
                  JOINT LeftHandMiddle1
                  {
                    OFFSET 3.163495 0.240981 1.000332
                    CHANNELS 3 Zrotation Yrotation Xrotation
                    JOINT LeftHandMiddle2
                    {
                      OFFSET 6.19078 -0.259278 -1.002548
                      CHANNELS 3 Zrotation Yrotation Xrotation
                      JOINT LeftHandMiddle3
                      {
                        OFFSET 4.35652 -4e-06 -1e-06
                        CHANNELS 3 Zrotation Yrotation Xrotation
                        JOINT LeftHandMiddle4
                        {
                          OFFSET 2.996877 -8e-06 0.0
                          CHANNELS 3 Zrotation Yrotation Xrotation
                          JOINT LeftHandMiddleEnd
                          {
                            OFFSET 2.304287 -0.294569 -0.031741
                            CHANNELS 3 Zrotation Yrotation Xrotation
                          }
                        }
                      }
                    }
                  }
                  JOINT LeftHandRing1
                  {
                    OFFSET 2.882643 -0.053652 -0.322543
                    CHANNELS 3 Zrotation Yrotation Xrotation
                    JOINT LeftHandRing2
                    {
                      OFFSET 5.854541 -0.486202 -1.373841
                      CHANNELS 3 Zrotation Yrotation Xrotation
                      JOINT LeftHandRing3
                      {
                        OFFSET 4.350578 0.0 3e-06
                        CHANNELS 3 Zrotation Yrotation Xrotation
                        JOINT LeftHandRing4
                        {
                          OFFSET 2.651321 7e-06 2e-06
                          CHANNELS 3 Zrotation Yrotation Xrotation
                          JOINT LeftHandRingEnd
                          {
                            OFFSET 1.936105 0.077687 -7.1e-05
                            CHANNELS 3 Zrotation Yrotation Xrotation
                          }
                        }
                      }
                    }
                  }
                  JOINT LeftHandPinky1
                  {
                    OFFSET 2.8655 -0.310005 -1.600378
                    CHANNELS 3 Zrotation Yrotation Xrotation
                    JOINT LeftHandPinky2
                    {
                      OFFSET 5.087849 -1.331141 -1.77123
                      CHANNELS 3 Zrotation Yrotation Xrotation
                      JOINT LeftHandPinky3
                      {
                        OFFSET 3.070974 4e-06 0.0
                        CHANNELS 3 Zrotation Yrotation Xrotation
                        JOINT LeftHandPinky4
                        {
                          OFFSET 1.549672 0.0 1e-06
                          CHANNELS 3 Zrotation Yrotation Xrotation
                          JOINT LeftHandPinkyEnd
                          {
                            OFFSET 1.944893 -0.157802 0.057219
                            CHANNELS 3 Zrotation Yrotation Xrotation
                          }
                        }
                      }
                    }
                  }
                }
              }
            }
          }
          JOINT RightShoulder
          {
            OFFSET -1.380118 23.180309 5.214158
            CHANNELS 3 Zrotation Yrotation Xrotation
            JOINT RightArm
            {
              OFFSET -15.037196 1.2e-05 -5.545604
              CHANNELS 3 Zrotation Yrotation Xrotation
              JOINT RightForeArm
              {
                OFFSET -28.736639 2e-06 -0.002597
                CHANNELS 3 Zrotation Yrotation Xrotation
                JOINT RightHand
                {
                  OFFSET -27.133619 -0.0 0.002613
                  CHANNELS 3 Zrotation Yrotation Xrotation
                  JOINT RightHandThumb1
                  {
                    OFFSET -2.274032 -1.383988 3.163127
                    CHANNELS 3 Zrotation Yrotation Xrotation
                    JOINT RightHandThumb2
                    {
                      OFFSET -4.011429 -1.827466 1.640914
                      CHANNELS 3 Zrotation Yrotation Xrotation
                      JOINT RightHandThumb3
                      {
                        OFFSET -2.794935 -4e-06 -3e-06
                        CHANNELS 3 Zrotation Yrotation Xrotation
                        JOINT RightHandThumbEnd
                        {
                          OFFSET -3.183852 4e-06 1e-06
                          CHANNELS 3 Zrotation Yrotation Xrotation
                        }
                      }
                    }
                  }
                  JOINT RightHandIndex1
                  {
                    OFFSET -3.253266 -0.520057 2.282866
                    CHANNELS 3 Zrotation Yrotation Xrotation
                    JOINT RightHandIndex2
                    {
                      OFFSET -6.341917 0.012471 0.178266
                      CHANNELS 3 Zrotation Yrotation Xrotation
                      JOINT RightHandIndex3
                      {
                        OFFSET -3.654871 -8e-06 -0.0
                        CHANNELS 3 Zrotation Yrotation Xrotation
                        JOINT RightHandIndex4
                        {
                          OFFSET -2.327586 0.0 1e-06
                          CHANNELS 3 Zrotation Yrotation Xrotation
                          JOINT RightHandIndexEnd
                          {
                            OFFSET -2.76179 -0.180656 -0.113078
                            CHANNELS 3 Zrotation Yrotation Xrotation
                          }
                        }
                      }
                    }
                  }
                  JOINT RightHandMiddle1
                  {
                    OFFSET -3.168106 0.246593 1.00103
                    CHANNELS 3 Zrotation Yrotation Xrotation
                    JOINT RightHandMiddle2
                    {
                      OFFSET -6.180828 -0.258836 -1.000895
                      CHANNELS 3 Zrotation Yrotation Xrotation
                      JOINT RightHandMiddle3
                      {
                        OFFSET -4.348901 0.0 -0.0
                        CHANNELS 3 Zrotation Yrotation Xrotation
                        JOINT RightHandMiddle4
                        {
                          OFFSET -3.00024 -4e-06 -2e-06
                          CHANNELS 3 Zrotation Yrotation Xrotation
                          JOINT RightHandMiddleEnd
                          {
                            OFFSET -2.30252 -0.29437 -0.031706
                            CHANNELS 3 Zrotation Yrotation Xrotation
                          }
                        }
                      }
                    }
                  }
                  JOINT RightHandRing1
                  {
                    OFFSET -2.88569 -0.067952 -0.308858
                    CHANNELS 3 Zrotation Yrotation Xrotation
                    JOINT RightHandRing2
                    {
                      OFFSET -5.854198 -0.48613 -1.373731
                      CHANNELS 3 Zrotation Yrotation Xrotation
                      JOINT RightHandRing3
                      {
                        OFFSET -4.33881 -4e-06 -0.0
                        CHANNELS 3 Zrotation Yrotation Xrotation
                        JOINT RightHandRing4
                        {
                          OFFSET -2.654903 -4e-06 4e-06
                          CHANNELS 3 Zrotation Yrotation Xrotation
                          JOINT RightHandRingEnd
                          {
                            OFFSET -1.933568 0.077527 -5.2e-05
                            CHANNELS 3 Zrotation Yrotation Xrotation
                          }
                        }
                      }
                    }
                  }
                  JOINT RightHandPinky1
                  {
                    OFFSET -2.866425 -0.342796 -1.584145
                    CHANNELS 3 Zrotation Yrotation Xrotation
                    JOINT RightHandPinky2
                    {
                      OFFSET -5.091371 -1.332055 -1.772385
                      CHANNELS 3 Zrotation Yrotation Xrotation
                      JOINT RightHandPinky3
                      {
                        OFFSET -3.062664 -4e-06 1e-06
                        CHANNELS 3 Zrotation Yrotation Xrotation
                        JOINT RightHandPinky4
                        {
                          OFFSET -1.546529 4e-06 -2e-06
                          CHANNELS 3 Zrotation Yrotation Xrotation
                          JOINT RightHandPinkyEnd
                          {
                            OFFSET -1.945119 -0.157718 0.057211
                            CHANNELS 3 Zrotation Yrotation Xrotation
                          }
                        }
                      }
                    }
                  }
                }
              }
            }
          }
        }
      }
    }
    JOINT LeftLeg
    {
      OFFSET 10.043214 -8.434526 2.595655
      CHANNELS 3 Zrotation Yrotation Xrotation
      JOINT LeftShin
      {
        OFFSET -1e-06 -43.221752 -0.802913
        CHANNELS 3 Zrotation Yrotation Xrotation
        JOINT LeftFoot
        {
          OFFSET 1e-06 -42.155094 -3.481523
          CHANNELS 3 Zrotation Yrotation Xrotation
          JOINT LeftToeBase
          {
            OFFSET 0.0 -5.059472 13.231529
            CHANNELS 3 Zrotation Yrotation Xrotation
            JOINT LeftToeEnd
            {
              OFFSET -0.009607 -1.647619 6.513017
              CHANNELS 3 Zrotation Yrotation Xrotation
            }
          }
        }
      }
    }
    JOINT RightLeg
    {
      OFFSET -10.047278 -8.29526 2.620317
      CHANNELS 3 Zrotation Yrotation Xrotation
      JOINT RightShin
      {
        OFFSET 1e-06 -43.362206 -0.805556
        CHANNELS 3 Zrotation Yrotation Xrotation
        JOINT RightFoot
        {
          OFFSET 2e-06 -42.117393 -3.478398
          CHANNELS 3 Zrotation Yrotation Xrotation
          JOINT RightToeBase
          {
            OFFSET -0.0 -5.079609 13.284196
            CHANNELS 3 Zrotation Yrotation Xrotation
            JOINT RightToeEnd
            {
              OFFSET 0.009532 -1.634378 6.460591
              CHANNELS 3 Zrotation Yrotation Xrotation
            }
          }
        }
      }
    }
  }
}
MOTION
Frames: 4
Frame Time: 0.03333333333333333
0.0 0.0 0.0 0.0 -0.0 0.0 0.531439 100.163612 5.908667 0.213848 -0.120119 -1.339913 0.078304 0.047199 -1.626013 -0.459935 0.316092 -5.829076 0.550193 -1.139447 13.677021 1.22626 2.31234 1.059805 -0.414941 1.134416 -3.572223 -0.420848 0.578123 -8.051292 7.7e-05 -2.3e-05 6e-06 0.013609 -0.02964 0.01108 0.750579 -3.759295 -10.592414 -0.726086 3.708002 -10.620895 -7.601643 -4.68383 15.764795 -61.685524 -17.861624 33.593105 -0.026293 -26.539478 0.021597 4.355315 1.681694 -5.218792 -5.882112 9.861292 0.70259 -10.936878 -0.360573 7.156207 -0.0 8.77483 -0.0 -15.998628 18.065369 6.067067 -1.844034 2.498506 -2.507277 -10.163608 4.67895 4.62111 -20.976038 -1e-06 0.0 -21.226303 2.4517 -3.594004 1e-06 -6e-06 -1e-06 -1.362683 2.240799 -0.746324 -21.334929 0.584913 3.008325 -13.821223 -2e-06 -0.0 -23.887188 -0.249078 -0.839485 -60.361652 2.525267 -1.232853 -0.294026 1.679689 0.833257 -14.218219 0.093217 1.30058 -34.212074 -0.287561 0.967166 -20.033228 0.964537 1.21284 0.0 1e-06 0.0 -3.44039 0.788234 0.501656 -15.928201 -3.167308 2.999707 -6.338832 -0.0 -1e-06 -18.123459 3.648189 -4.905673 -4e-06 -1e-06 -1e-06 13.623794 11.158961 18.246733 58.841862 13.78966 17.912754 0.387423 27.78636 0.122574 -0.752467 3.223026 -1.648091 2.243543 -5.25504 -3.18016 14.282896 -0.826597 6.952504 -1e-06 -12.690609 -1e-06 16.096205 -17.926802 2.66238 1.665667 -1.955922 -2.878299 4.7278 -4.170588 4.993923 11.020529 2e-06 -2e-06 12.109057 -3.735718 -2.866786 -1e-06 -0.0 1e-06 1.291987 -1.928551 -1.498087 14.800132 0.567468 3.865607 14.242577 -1.341738 -6.660662 19.631969 0.143923 -0.648246 50.014755 -0.629143 -6.535825 0.353029 -1.51115 -0.031938 20.222801 3.684309 2.316629 18.787283 6e-06 -4e-06 10.751633 -0.479868 1.397906 1e-06 1e-06 -2e-06 3.273808 0.305947 -0.580111 21.486818 11.830378 2.266131 8.162929 2e-06 -2e-06 18.399088 -3.798986 -4.940578 4e-06 -0.0 -1e-06 2.504019 5.40967 4.17108 -0.011384 0.176202 1.93631 -4.616027 -0.315847 -4.71161 1.655281 -1.826321 0.278218 -0.0 -0.0 2e-06 -2.45296 -5.200691 3.614988 0.012457 -0.147014 3.023727 5.740521 -6.961505 -5.864014 -1.394684 1.087182 -0.565178 -0.0 -0.0 -1e-06 
0.0 0.0 0.0 0.0 -0.0 0.0 0.551823 100.159584 6.013261 0.219949 -0.11471 -1.244213 0.08701 0.038325 -1.642774 -0.453448 0.359112 -5.817072 0.554485 -1.200502 13.594275 1.19166 2.331244 0.975817 -0.41281 1.172797 -3.555951 -0.432353 0.601291 -7.96654 7.7e-05 -2.3e-05 6e-06 0.010621 -0.0062 0.008101 0.746909 -3.737582 -10.590331 -0.728228 3.732392 -10.613441 -7.455475 -4.726268 15.72767 -61.904465 -17.934498 33.493065 -0.068361 -26.483915 -0.020312 4.36567 1.743569 -4.985283 -5.882106 9.861285 0.702591 -10.936873 -0.360576 7.156208 2e-06 8.774827 1e-06 -15.997058 18.071772 6.076387 -1.844032 2.498505 -2.507278 -10.163599 4.678945 4.62111 -20.976023 -6e-06 -1e-06 -21.226288 2.451694 -3.593998 1e-06 -5e-06 0.0 -1.36268 2.240798 -0.746323 -21.334915 0.584908 3.008323 -13.821213 -4e-06 -0.0 -23.887173 -0.249082 -0.839483 -60.412933 2.518565 -1.164781 -0.294024 1.679687 0.833257 -14.21821 0.093214 1.300579 -34.212055 -0.287569 0.96717 -20.033218 0.964534 1.212847 -1e-06 1e-06 0.0 -3.440388 0.788233 0.501656 -15.928185 -3.167311 2.999704 -6.338827 -2e-06 -2e-06 -18.123444 3.64818 -4.905669 -4e-06 -0.0 -1e-06 13.587723 11.203211 18.2887 58.931679 13.835429 17.979649 0.421843 27.524622 0.138162 -0.55339 3.306553 -1.74133 2.243543 -5.255039 -3.180158 14.282896 -0.826596 6.952508 -3e-06 -12.69061 0.0 16.140755 -17.952927 2.613619 1.665666 -1.955923 -2.878301 4.727801 -4.170588 4.993927 11.02053 3e-06 -0.0 12.109055 -3.735717 -2.866785 -1e-06 0.0 -0.0 1.291986 -1.928549 -1.498091 14.800136 0.567468 3.865609 14.242579 -1.341736 -6.660662 19.631979 0.143926 -0.648243 50.12616 -0.628743 -6.551619 0.35303 -1.511152 -0.031941 20.222801 3.684313 2.316631 18.787281 6e-06 -1e-06 10.751634 -0.479867 1.397906 0.0 0.0 -1e-06 3.273808 0.305948 -0.580111 21.486824 11.830381 2.266135 8.16293 3e-06 -0.0 18.399088 -3.798987 -4.940574 4e-06 -0.0 -1e-06 2.445453 5.327053 4.148701 -0.022344 0.121555 1.886292 -4.715946 -0.187224 -4.760287 1.657465 -1.854053 0.211072 -0.0 0.0 2e-06 -2.460356 -5.073164 3.597847 0.007124 -0.137137 2.983367 5.769478 -7.115624 -5.916072 -1.396376 1.07086 -0.621509 -0.0 -0.0 -1e-06 
0.0 0.0 0.0 0.0 -0.0 0.0 0.635236 100.157776 6.045627 0.248077 -0.149237 -1.115075 0.085357 0.024479 -1.661092 -0.447153 0.366672 -5.81814 0.553548 -1.219031 13.555224 1.135454 2.375332 0.877481 -0.401426 1.171595 -3.58722 -0.457096 0.598629 -7.850179 7.7e-05 -2.3e-05 6e-06 0.009598 -0.004481 0.004395 0.74298 -3.73705 -10.607225 -0.726228 3.734282 -10.623881 -7.318077 -4.785752 15.702255 -62.115196 -17.975641 33.361343 -0.082019 -26.502291 -0.047897 4.38689 1.839191 -5.004862 -5.882111 9.86129 0.70259 -10.93688 -0.360576 7.156208 2e-06 8.774831 -1e-06 -16.012392 18.111364 6.068247 -1.844034 2.498506 -2.507279 -10.163608 4.678947 4.621111 -20.97604 -5e-06 1e-06 -21.226303 2.451697 -3.594003 0.0 -6e-06 -1e-06 -1.362683 2.2408 -0.746325 -21.334932 0.584908 3.008322 -13.821225 -5e-06 0.0 -23.887192 -0.249082 -0.839484 -60.404575 2.543926 -1.205395 -0.294024 1.679688 0.833255 -14.218221 0.093214 1.300577 -34.212082 -0.287568 0.96717 -20.03323 0.964534 1.212844 0.0 -0.0 0.0 -3.44039 0.788233 0.501655 -15.9282 -3.167312 2.999707 -6.338831 -1e-06 -1e-06 -18.123459 3.648183 -4.905675 -5e-06 -0.0 -1e-06 13.552204 11.29076 18.325346 58.980774 13.883592 18.026821 0.457619 27.302301 0.139678 -0.396513 3.33522 -1.739417 2.243541 -5.255038 -3.180158 14.282892 -0.826594 6.952501 -2e-06 -12.690607 -1e-06 16.193569 -17.944906 2.595062 1.665667 -1.955921 -2.878299 4.727798 -4.170588 4.993923 11.020526 1e-06 -1e-06 12.109052 -3.735717 -2.866787 -1e-06 -0.0 1e-06 1.291986 -1.928551 -1.498089 14.800129 0.567468 3.865605 14.242576 -1.341738 -6.66066 19.631971 0.143926 -0.648245 50.186081 -0.639802 -6.567409 0.353029 -1.511151 -0.031942 20.222794 3.684311 2.316629 18.787273 5e-06 -3e-06 10.751631 -0.479868 1.397905 1e-06 1e-06 -1e-06 3.273807 0.305948 -0.580111 21.486813 11.830377 2.266135 8.162928 3e-06 -0.0 18.39908 -3.798985 -4.940578 4e-06 1e-06 -1e-06 2.346643 5.216128 4.082635 -0.024638 0.091567 1.862674 -4.735001 -0.038149 -4.80428 1.659181 -1.864619 0.168729 0.0 -0.0 2e-06 -2.517701 -4.978176 3.4312 0.00634 -0.128492 3.134346 5.874582 -7.242409 -6.033487 -1.394998 1.061605 -0.654927 -0.0 -0.0 -1e-06 
0.0 0.0 0.0 0.0 -0.0 0.0 0.72218 100.165367 6.04568 0.272986 -0.219224 -0.966803 0.074368 0.015128 -1.658658 -0.43458 0.354997 -5.824948 0.559166 -1.217764 13.519037 1.046858 2.421701 0.785603 -0.380684 1.187187 -3.620935 -0.467669 0.608869 -7.811632 7.7e-05 -2.3e-05 6e-06 0.008564 -0.016278 0.001218 0.739741 -3.748569 -10.62125 -0.724959 3.721359 -10.633999 -7.210012 -4.85754 15.722211 -62.320465 -18.010382 33.257465 -0.045477 -26.573154 -0.070278 4.480272 1.92095 -5.058948 -5.882106 9.861283 0.70259 -10.93687 -0.360573 7.156203 -1e-06 8.774822 -0.0 -16.001348 18.12285 6.060956 -1.844032 2.498504 -2.507279 -10.163597 4.678945 4.621106 -20.976017 1e-06 1e-06 -21.22628 2.451699 -3.594 0.0 -6e-06 -1e-06 -1.362682 2.240798 -0.746324 -21.334911 0.584913 3.008322 -13.821213 -1e-06 0.0 -23.887167 -0.249076 -0.839483 -60.370594 2.558437 -1.249346 -0.294026 1.679686 0.833254 -14.218207 0.093216 1.300578 -34.212048 -0.287561 0.967167 -20.033211 0.964538 1.212842 0.0 1e-06 0.0 -3.440388 0.788233 0.501656 -15.928183 -3.167305 2.999706 -6.338825 0.0 0.0 -18.123444 3.648184 -4.905671 -5e-06 -1e-06 -1e-06 13.507955 11.378134 18.365311 59.004101 13.942187 18.125687 0.433953 27.168016 0.118991 -0.232567 3.321457 -1.72196 2.243543 -5.255037 -3.180158 14.282892 -0.826597 6.952503 -0.0 -12.690605 -1e-06 16.241064 -17.923241 2.587685 1.665666 -1.955921 -2.878299 4.7278 -4.170588 4.993923 11.020526 -0.0 0.0 12.109053 -3.735718 -2.866787 -1e-06 -1e-06 1e-06 1.291986 -1.928549 -1.49809 14.800129 0.567465 3.865607 14.242575 -1.341739 -6.660662 19.631969 0.143921 -0.648245 50.191486 -0.661163 -6.571587 0.353029 -1.51115 -0.03194 20.222792 3.684305 2.31663 18.787273 0.0 -3e-06 10.751629 -0.479872 1.397905 0.0 0.0 -1e-06 3.273806 0.305947 -0.580112 21.486814 11.830369 2.266135 8.162928 0.0 -2e-06 18.399088 -3.798988 -4.94058 5e-06 -1e-06 0.0 2.244733 5.157937 3.981893 -0.022284 0.077629 1.857135 -4.695937 0.099323 -4.818215 1.658167 -1.858676 0.11954 0.0 -0.0 2e-06 -2.582831 -4.909288 3.245552 0.007744 -0.13305 3.231901 5.991544 -7.27769 -6.07902 -1.393832 1.052089 -0.682954 0.0 -0.0 -1e-06 
